<svg width="1343" height="1024" viewBox="0 0 1343 1024" fill="none" xmlns="http://www.w3.org/2000/svg">
<g id="Group" opacity="0.685105">
<g id="Group 4" opacity="0.247768">
<circle id="Oval Copy 30" cx="1136.62" cy="998.4" r="10.5" transform="rotate(-162 1136.62 998.4)" fill="#339DFF"/>
<circle id="Oval Copy 31" cx="1154.09" cy="942.364" r="10.5" transform="rotate(-162 1154.09 942.364)" fill="#339DFF"/>
<circle id="Oval Copy 32" cx="1172.9" cy="886.766" r="10.5" transform="rotate(-162 1172.9 886.766)" fill="#339DFF"/>
<circle id="Oval Copy 33" cx="1190.81" cy="831.621" r="10.5" transform="rotate(-162 1190.81 831.621)" fill="#339DFF"/>
<circle id="Oval Copy 34" cx="1208.28" cy="775.585" r="10.5" transform="rotate(-162 1208.28 775.585)" fill="#339DFF"/>
<circle id="Oval Copy 35" cx="1227.09" cy="719.986" r="10.5" transform="rotate(-162 1227.09 719.986)" fill="#339DFF"/>
<circle id="Oval Copy 36" cx="1245" cy="664.841" r="10.5" transform="rotate(-162 1245 664.841)" fill="#339DFF"/>
<circle id="Oval Copy 37" cx="1262.47" cy="608.805" r="10.5" transform="rotate(-162 1262.47 608.805)" fill="#339DFF"/>
<circle id="Oval Copy 347" cx="898.127" cy="981.875" r="1.5" transform="rotate(-162 898.127 981.875)" fill="#339DFF"/>
<circle id="Oval Copy 348" cx="916.045" cy="926.73" r="1.5" transform="rotate(-162 916.045 926.73)" fill="#339DFF"/>
<circle id="Oval Copy 349" cx="933.508" cy="870.694" r="1.5" transform="rotate(-162 933.508 870.694)" fill="#339DFF"/>
<circle id="Oval Copy 350" cx="952.317" cy="815.095" r="1.5" transform="rotate(-162 952.317 815.095)" fill="#339DFF"/>
<circle id="Oval Copy 351" cx="970.235" cy="759.95" r="1.5" transform="rotate(-162 970.235 759.95)" fill="#339DFF"/>
<circle id="Oval Copy 352" cx="987.698" cy="703.914" r="1.5" transform="rotate(-162 987.698 703.914)" fill="#339DFF"/>
<circle id="Oval Copy 353" cx="1006.51" cy="648.315" r="1.5" transform="rotate(-162 1006.51 648.315)" fill="#339DFF"/>
<circle id="Oval Copy 354" cx="1024.42" cy="593.17" r="1.5" transform="rotate(-162 1024.42 593.17)" fill="#339DFF"/>
<circle id="Oval Copy 355" cx="1042.34" cy="538.026" r="1.5" transform="rotate(-162 1042.34 538.026)" fill="#339DFF"/>
<circle id="Oval Copy 356" cx="1060.7" cy="481.536" r="1.5" transform="rotate(-162 1060.7 481.536)" fill="#339DFF"/>
<circle id="Oval Copy 357" cx="1078.61" cy="426.391" r="1.5" transform="rotate(-162 1078.61 426.391)" fill="#339DFF"/>
<circle id="Oval Copy 358" cx="1096.53" cy="371.246" r="1.5" transform="rotate(-162 1096.53 371.246)" fill="#339DFF"/>
<circle id="Oval Copy 359" cx="1114.89" cy="314.756" r="1.5" transform="rotate(-162 1114.89 314.756)" fill="#339DFF"/>
<circle id="Oval Copy 360" cx="1132.8" cy="259.611" r="1.5" transform="rotate(-162 1132.8 259.611)" fill="#339DFF"/>
<circle id="Oval Copy 361" cx="1150.72" cy="204.466" r="1.5" transform="rotate(-162 1150.72 204.466)" fill="#339DFF"/>
<circle id="Oval Copy 362" cx="1169.08" cy="147.976" r="1.5" transform="rotate(-162 1169.08 147.976)" fill="#339DFF"/>
<circle id="Oval Copy 363" cx="1186.99" cy="92.8316" r="1.5" transform="rotate(-162 1186.99 92.8316)" fill="#339DFF"/>
<circle id="Oval Copy 264" cx="935.787" cy="994.111" r="3.5" transform="rotate(-162 935.787 994.111)" fill="#339DFF"/>
<circle id="Oval Copy 265" cx="953.705" cy="938.966" r="3.5" transform="rotate(-162 953.705 938.966)" fill="#339DFF"/>
<circle id="Oval Copy 266" cx="971.168" cy="882.93" r="3.5" transform="rotate(-162 971.168 882.93)" fill="#339DFF"/>
<circle id="Oval Copy 267" cx="989.977" cy="827.331" r="3.5" transform="rotate(-162 989.977 827.331)" fill="#339DFF"/>
<circle id="Oval Copy 268" cx="1007.89" cy="772.186" r="3.5" transform="rotate(-162 1007.89 772.186)" fill="#339DFF"/>
<circle id="Oval Copy 269" cx="1025.36" cy="716.151" r="3.5" transform="rotate(-162 1025.36 716.151)" fill="#339DFF"/>
<circle id="Oval Copy 270" cx="1044.17" cy="660.552" r="3.5" transform="rotate(-162 1044.17 660.552)" fill="#339DFF"/>
<circle id="Oval Copy 271" cx="1062.08" cy="605.407" r="3.5" transform="rotate(-162 1062.08 605.407)" fill="#339DFF"/>
<circle id="Oval Copy 272" cx="1079.55" cy="549.371" r="3.5" transform="rotate(-162 1079.55 549.371)" fill="#339DFF"/>
<circle id="Oval Copy 222" cx="976.809" cy="1007.44" r="5" transform="rotate(-162 976.809 1007.44)" fill="#339DFF"/>
<circle id="Oval Copy 223" cx="994.727" cy="952.295" r="5" transform="rotate(-162 994.727 952.295)" fill="#339DFF"/>
<circle id="Oval Copy 224" cx="1012.19" cy="896.259" r="5" transform="rotate(-162 1012.19 896.259)" fill="#339DFF"/>
<circle id="Oval Copy 225" cx="1031" cy="840.66" r="5" transform="rotate(-162 1031 840.66)" fill="#339DFF"/>
<circle id="Oval Copy 226" cx="1048.92" cy="785.515" r="5" transform="rotate(-162 1048.92 785.515)" fill="#339DFF"/>
<circle id="Oval Copy 227" cx="1066.38" cy="729.48" r="5" transform="rotate(-162 1066.38 729.48)" fill="#339DFF"/>
<circle id="Oval Copy 228" cx="1084.3" cy="674.335" r="5" transform="rotate(-162 1084.3 674.335)" fill="#339DFF"/>
<circle id="Oval Copy 229" cx="1103.11" cy="618.736" r="5" transform="rotate(-162 1103.11 618.736)" fill="#339DFF"/>
<circle id="Oval Copy 230" cx="1120.57" cy="562.7" r="5" transform="rotate(-162 1120.57 562.7)" fill="#339DFF"/>
<circle id="Oval Copy 162" cx="1085.51" cy="981.794" r="8.5" transform="rotate(-162 1085.51 981.794)" fill="#339DFF"/>
<circle id="Oval Copy 181" cx="1020.3" cy="1022.32" r="7" transform="rotate(-162 1020.3 1022.32)" fill="#339DFF"/>
<circle id="Oval Copy 145" cx="1104.32" cy="926.195" r="8.5" transform="rotate(-162 1104.32 926.195)" fill="#339DFF"/>
<circle id="Oval Copy 146" cx="1121.79" cy="870.159" r="8.5" transform="rotate(-162 1121.79 870.159)" fill="#339DFF"/>
<circle id="Oval Copy 183" cx="1038.66" cy="965.826" r="7" transform="rotate(-162 1038.66 965.826)" fill="#339DFF"/>
<circle id="Oval Copy 147" cx="1139.7" cy="815.014" r="8.5" transform="rotate(-162 1139.7 815.014)" fill="#339DFF"/>
<circle id="Oval Copy 184" cx="1056.58" cy="910.681" r="7" transform="rotate(-162 1056.58 910.681)" fill="#339DFF"/>
<circle id="Oval Copy 148" cx="1158.51" cy="759.415" r="8.5" transform="rotate(-162 1158.51 759.415)" fill="#339DFF"/>
<circle id="Oval Copy 185" cx="1074.49" cy="855.536" r="7" transform="rotate(-162 1074.49 855.536)" fill="#339DFF"/>
<circle id="Oval Copy 149" cx="1175.98" cy="703.379" r="8.5" transform="rotate(-162 1175.98 703.379)" fill="#339DFF"/>
<circle id="Oval Copy 186" cx="1092.85" cy="799.046" r="7" transform="rotate(-162 1092.85 799.046)" fill="#339DFF"/>
<circle id="Oval Copy 151" cx="1193.89" cy="648.234" r="8.5" transform="rotate(-162 1193.89 648.234)" fill="#339DFF"/>
<circle id="Oval Copy 187" cx="1110.77" cy="743.901" r="7" transform="rotate(-162 1110.77 743.901)" fill="#339DFF"/>
<circle id="Oval Copy 152" cx="1212.7" cy="592.636" r="8.5" transform="rotate(-162 1212.7 592.636)" fill="#339DFF"/>
<circle id="Oval Copy 189" cx="1128.68" cy="688.756" r="7" transform="rotate(-162 1128.68 688.756)" fill="#339DFF"/>
<circle id="Oval Copy 190" cx="1147.04" cy="632.266" r="7" transform="rotate(-162 1147.04 632.266)" fill="#339DFF"/>
<circle id="Oval Copy 191" cx="1164.96" cy="577.122" r="7" transform="rotate(-162 1164.96 577.122)" fill="#339DFF"/>
<circle id="Oval Copy 280" cx="1224.65" cy="105.068" r="3.5" transform="rotate(-162 1224.65 105.068)" fill="#339DFF"/>
<circle id="Oval Copy 238" cx="1265.68" cy="118.397" r="5" transform="rotate(-162 1265.68 118.397)" fill="#339DFF"/>
<circle id="Oval Copy 200" cx="1309.17" cy="133.272" r="7" transform="rotate(-162 1309.17 133.272)" fill="#339DFF"/>
<circle id="Oval Copy 160" cx="1339" cy="203.931" r="8.5" transform="rotate(-162 1339 203.931)" fill="#339DFF"/>
<circle id="Oval Copy 199" cx="1291.25" cy="188.417" r="7" transform="rotate(-162 1291.25 188.417)" fill="#339DFF"/>
<circle id="Oval Copy 279" cx="1205.85" cy="160.667" r="3.5" transform="rotate(-162 1205.85 160.667)" fill="#339DFF"/>
<circle id="Oval Copy 237" cx="1246.87" cy="173.996" r="5" transform="rotate(-162 1246.87 173.996)" fill="#339DFF"/>
<circle id="Oval Copy 278" cx="1188.38" cy="216.703" r="3.5" transform="rotate(-162 1188.38 216.703)" fill="#339DFF"/>
<circle id="Oval Copy 236" cx="1228.95" cy="229.141" r="5" transform="rotate(-162 1228.95 229.141)" fill="#339DFF"/>
<circle id="Oval Copy 159" cx="1320.19" cy="259.53" r="8.5" transform="rotate(-162 1320.19 259.53)" fill="#339DFF"/>
<circle id="Oval Copy 198" cx="1273.34" cy="243.562" r="7" transform="rotate(-162 1273.34 243.562)" fill="#339DFF"/>
<circle id="Oval Copy 42" cx="1353.38" cy="331.282" r="10.5" transform="rotate(-162 1353.38 331.282)" fill="#339DFF"/>
<circle id="Oval Copy 277" cx="1170.46" cy="271.847" r="3.5" transform="rotate(-162 1170.46 271.847)" fill="#339DFF"/>
<circle id="Oval Copy 235" cx="1211.49" cy="285.176" r="5" transform="rotate(-162 1211.49 285.176)" fill="#339DFF"/>
<circle id="Oval Copy 158" cx="1302.27" cy="314.675" r="8.5" transform="rotate(-162 1302.27 314.675)" fill="#339DFF"/>
<circle id="Oval Copy 197" cx="1254.98" cy="300.052" r="7" transform="rotate(-162 1254.98 300.052)" fill="#339DFF"/>
<circle id="Oval Copy 41" cx="1334.58" cy="386.881" r="10.5" transform="rotate(-162 1334.58 386.881)" fill="#339DFF"/>
<circle id="Oval Copy 276" cx="1151.66" cy="327.446" r="3.5" transform="rotate(-162 1151.66 327.446)" fill="#339DFF"/>
<circle id="Oval Copy 234" cx="1192.68" cy="340.775" r="5" transform="rotate(-162 1192.68 340.775)" fill="#339DFF"/>
<circle id="Oval Copy 157" cx="1284.81" cy="370.711" r="8.5" transform="rotate(-162 1284.81 370.711)" fill="#339DFF"/>
<circle id="Oval Copy 196" cx="1237.06" cy="355.197" r="7" transform="rotate(-162 1237.06 355.197)" fill="#339DFF"/>
<circle id="Oval Copy 40" cx="1317.11" cy="442.917" r="10.5" transform="rotate(-162 1317.11 442.917)" fill="#339DFF"/>
<circle id="Oval Copy 275" cx="1134.19" cy="383.482" r="3.5" transform="rotate(-162 1134.19 383.482)" fill="#339DFF"/>
<circle id="Oval Copy 233" cx="1174.76" cy="395.92" r="5" transform="rotate(-162 1174.76 395.92)" fill="#339DFF"/>
<circle id="Oval Copy 156" cx="1266.89" cy="425.856" r="8.5" transform="rotate(-162 1266.89 425.856)" fill="#339DFF"/>
<circle id="Oval Copy 195" cx="1219.15" cy="410.342" r="7" transform="rotate(-162 1219.15 410.342)" fill="#339DFF"/>
<circle id="Oval Copy 39" cx="1299.19" cy="498.061" r="10.5" transform="rotate(-162 1299.19 498.061)" fill="#339DFF"/>
<circle id="Oval Copy 155" cx="1248.08" cy="481.455" r="8.5" transform="rotate(-162 1248.08 481.455)" fill="#339DFF"/>
<circle id="Oval Copy 193" cx="1201.23" cy="465.487" r="7" transform="rotate(-162 1201.23 465.487)" fill="#339DFF"/>
<circle id="Oval Copy 315" cx="1352.32" cy="515.323" r="12" transform="rotate(-162 1352.32 515.323)" fill="#339DFF"/>
<circle id="Oval Copy 274" cx="1116.27" cy="438.627" r="3.5" transform="rotate(-162 1116.27 438.627)" fill="#339DFF"/>
<circle id="Oval Copy 232" cx="1157.3" cy="451.956" r="5" transform="rotate(-162 1157.3 451.956)" fill="#339DFF"/>
<circle id="Oval Copy 38" cx="1281.28" cy="553.206" r="10.5" transform="rotate(-162 1281.28 553.206)" fill="#339DFF"/>
<circle id="Oval Copy 273" cx="1098.36" cy="493.772" r="3.5" transform="rotate(-162 1098.36 493.772)" fill="#339DFF"/>
<circle id="Oval Copy 231" cx="1138.49" cy="507.555" r="5" transform="rotate(-162 1138.49 507.555)" fill="#339DFF"/>
<circle id="Oval Copy 153" cx="1230.17" cy="536.6" r="8.5" transform="rotate(-162 1230.17 536.6)" fill="#339DFF"/>
<circle id="Oval Copy 192" cx="1182.87" cy="521.977" r="7" transform="rotate(-162 1182.87 521.977)" fill="#339DFF"/>
<circle id="Oval Copy 314" cx="1334.86" cy="571.359" r="12" transform="rotate(-162 1334.86 571.359)" fill="#339DFF"/>
<circle id="Oval Copy 366" cx="1326.25" cy="998.302" r="15.5" transform="rotate(-162 1326.25 998.302)" fill="#339DFF"/>
<circle id="Oval Copy 367" cx="1344.17" cy="943.158" r="15.5" transform="rotate(-162 1344.17 943.158)" fill="#339DFF"/>
<circle id="Oval Copy 368" cx="1361.63" cy="887.122" r="15.5" transform="rotate(-162 1361.63 887.122)" fill="#339DFF"/>
<circle id="Oval Copy 72" cx="1247.81" cy="1033.78" r="13.5" transform="rotate(-162 1247.81 1033.78)" fill="#339DFF"/>
<circle id="Oval Copy 73" cx="1265.72" cy="978.637" r="13.5" transform="rotate(-162 1265.72 978.637)" fill="#339DFF"/>
<circle id="Oval Copy 74" cx="1283.64" cy="923.492" r="13.5" transform="rotate(-162 1283.64 923.492)" fill="#339DFF"/>
<circle id="Oval Copy 75" cx="1302" cy="867.002" r="13.5" transform="rotate(-162 1302 867.002)" fill="#339DFF"/>
<circle id="Oval Copy 76" cx="1319.91" cy="811.857" r="13.5" transform="rotate(-162 1319.91 811.857)" fill="#339DFF"/>
<circle id="Oval Copy 77" cx="1337.83" cy="756.712" r="13.5" transform="rotate(-162 1337.83 756.712)" fill="#339DFF"/>
<circle id="Oval Copy 78" cx="1355.29" cy="700.676" r="13.5" transform="rotate(-162 1355.29 700.676)" fill="#339DFF"/>
<circle id="Oval Copy 306" cx="1190.64" cy="1015.21" r="12" transform="rotate(-162 1190.64 1015.21)" fill="#339DFF"/>
<circle id="Oval Copy 307" cx="1208.56" cy="960.064" r="12" transform="rotate(-162 1208.56 960.064)" fill="#339DFF"/>
<circle id="Oval Copy 308" cx="1226.48" cy="904.919" r="12" transform="rotate(-162 1226.48 904.919)" fill="#339DFF"/>
<circle id="Oval Copy 309" cx="1244.83" cy="848.429" r="12" transform="rotate(-162 1244.83 848.429)" fill="#339DFF"/>
<circle id="Oval Copy 310" cx="1262.75" cy="793.284" r="12" transform="rotate(-162 1262.75 793.284)" fill="#339DFF"/>
<circle id="Oval Copy 311" cx="1280.67" cy="738.139" r="12" transform="rotate(-162 1280.67 738.139)" fill="#339DFF"/>
<circle id="Oval Copy 312" cx="1298.13" cy="682.103" r="12" transform="rotate(-162 1298.13 682.103)" fill="#339DFF"/>
<circle id="Oval Copy 313" cx="1316.94" cy="626.504" r="12" transform="rotate(-162 1316.94 626.504)" fill="#339DFF"/>
</g>
</g>
</svg>
